HIERARCHY
ROOT Hips
{
    OFFSET 0.000000 0.000000 0.000000
    CHANNELS 6 Xposition Yposition Zposition Zrotation Xrotation Yrotation
    JOINT Spine
    {
        OFFSET -0.000000 14.517291 0.000000
        CHANNELS 3 Zrotation Xrotation Yrotation
        JOINT Spine1
        {
            OFFSET -0.000000 37.558300 0.000000
            CHANNELS 3 Zrotation Xrotation Yrotation
            JOINT Neck
            {
                OFFSET -0.000000 37.404057 3.400369
                CHANNELS 3 Zrotation Xrotation Yrotation
                JOINT Head
                {
                    OFFSET -0.000000 24.785618 -3.540803
                    CHANNELS 3 Zrotation Xrotation Yrotation
                    End Site
                    {
                        OFFSET -0.000000 35.408028 0.000000
                    }
                }
            }
            JOINT LeftShoulder
            {
                OFFSET 6.992933 33.973492 -0.192664
                CHANNELS 3 Zrotation Xrotation Yrotation
                JOINT LeftArm
                {
                    OFFSET 21.527611 0.000000 0.000000
                    CHANNELS 3 Zrotation Xrotation Yrotation
                    JOINT LeftForeArm
                    {
                        OFFSET 56.353916 0.000000 0.000000
                        CHANNELS 3 Zrotation Xrotation Yrotation
                        JOINT LeftHand
                        {
                            OFFSET 47.774071 0.000000 0.000000
                            CHANNELS 3 Zrotation Xrotation Yrotation
                            End Site
                            {
                                OFFSET 26.556021 0.000000 0.000000
                            }
                        }
                    }
                }
            }
            JOINT RightShoulder
            {
                OFFSET -7.065357 33.973492 -0.192664
                CHANNELS 3 Zrotation Xrotation Yrotation
                JOINT RightArm
                {
                    OFFSET -21.527611 0.000000 0.000000
                    CHANNELS 3 Zrotation Xrotation Yrotation
                    JOINT RightForeArm
                    {
                        OFFSET -56.353916 0.000000 0.000000
                        CHANNELS 3 Zrotation Xrotation Yrotation
                        JOINT RightHand
                        {
                            OFFSET -47.774071 0.000000 0.000000
                            CHANNELS 3 Zrotation Xrotation Yrotation
                            End Site
                            {
                                OFFSET -26.556021 0.000000 0.000000
                            }
                        }
                    }
                }
            }
        }
    }
    JOINT LeftUpLeg
    {
        OFFSET 17.704014 0.000000 0.000000
        CHANNELS 3 Zrotation Xrotation Yrotation
        JOINT LeftLeg
        {
            OFFSET -0.000000 -81.181816 0.000000
            CHANNELS 3 Zrotation Xrotation Yrotation
            JOINT LeftFoot
            {
                OFFSET -0.000000 -62.821102 0.000000
                CHANNELS 3 Zrotation Xrotation Yrotation
                JOINT LeftToeBase
                {
                    OFFSET -0.000000 -11.507608 26.556021
                    CHANNELS 3 Zrotation Xrotation Yrotation
                    End Site
                    {
                        OFFSET -0.000000 0.000000 7.081605
                    }
                }
            }
        }
    }
    JOINT RightUpLeg
    {
        OFFSET -17.704014 0.000000 0.000000
        CHANNELS 3 Zrotation Xrotation Yrotation
        JOINT RightLeg
        {
            OFFSET -0.000000 -81.181816 0.000000
            CHANNELS 3 Zrotation Xrotation Yrotation
            JOINT RightFoot
            {
                OFFSET -0.000000 -62.821102 0.000000
                CHANNELS 3 Zrotation Xrotation Yrotation
                JOINT RightToeBase
                {
                    OFFSET -0.000000 -11.507608 26.556021
                    CHANNELS 3 Zrotation Xrotation Yrotation
                    End Site
                    {
                        OFFSET -0.000000 0.000000 7.081605
                    }
                }
            }
        }
    }
}
MOTION
Frames:    5
Frame Time:    0.008333
30.111736    156.451538    -102.355087    1.163933    -0.531584    20.943317    0.343340    -0.455764    -2.480844    -11.425474    -0.967135    -0.924480    7.161719    12.182187    -8.165480    12.509325    -8.620847    -6.076341    12.272590    -5.221314    -14.153615    -23.972082    -33.983566    -33.719555    -14.420065    -41.055588    -86.877739    -39.623631    -38.856586    -43.683506    -19.128050    0.743358    -9.636082    20.205824    18.718348    11.314271    19.681793    -19.865152    9.101645    -29.850401    -39.386875    68.566849    1.997833    -7.044275    1.897436    -13.491715    34.273293    -16.410076    16.178856    -20.811312    47.040089    0.000000    0.000000    0.000000    -17.321688    -24.277685    -5.866815    5.964993    15.470710    -15.038560    2.085118    -0.746276    -21.954784    0.000000    0.000000    0.000000    
30.061733    156.500076    -102.305267    1.156969    -0.562639    21.058769    0.330615    -0.441568    -2.542071    -11.399898    -0.985753    -0.946507    7.153759    12.232794    -8.190992    12.526546    -8.630359    -6.094562    12.269295    -5.196910    -14.174820    -23.950256    -33.969265    -33.706570    -14.429585    -41.063202    -86.889610    -39.637142    -38.874928    -43.665405    -19.105839    0.751593    -9.625881    20.241745    18.694229    11.311680    19.662426    -19.821976    9.121927    -29.976990    -39.381973    68.423729    2.033691    -6.982666    1.791816    -13.496248    34.175716    -16.438503    16.146227    -20.748762    47.029907    0.000000    0.000000    0.000000    -17.191402    -24.321560    -5.184166    5.926859    15.594859    -14.640559    2.231900    -0.919422    -21.634098    0.000000    0.000000    0.000000    
30.011564    156.545181    -102.253067    1.162490    -0.595505    21.173330    0.302584    -0.419213    -2.600756    -11.358489    -1.000322    -0.967055    7.142747    12.262129    -8.210974    12.513790    -8.634701    -6.115341    12.254430    -5.180089    -14.192759    -23.947527    -33.980568    -33.719131    -14.458386    -41.048492    -86.888863    -39.625416    -38.895115    -43.637035    -19.095444    0.764909    -9.639443    19.347969    18.479406    11.158101    19.662426    -19.821976    9.121927    -29.976990    -39.381973    68.423729    2.054482    -6.910845    1.696412    -13.484000    34.072777    -16.464901    16.101559    -20.695360    47.010460    0.000000    0.000000    0.000000    -17.095009    -24.336374    -4.451101    5.953386    15.668884    -14.058002    2.493737    -1.099926    -21.614519    0.000000    0.000000    0.000000    
29.960886    156.590195    -102.188316    1.165248    -0.640114    21.295031    0.284032    -0.390021    -2.665841    -11.331685    -1.017016    -0.990157    7.173660    12.325854    -8.225735    12.473877    -8.683162    -6.131201    12.264975    -5.157218    -14.207399    -23.959162    -33.994041    -33.732296    -14.464532    -41.025501    -86.863037    -39.643112    -38.860500    -43.649807    -19.071682    0.765504    -9.644228    20.276201    18.626469    11.352742    19.694653    -19.731232    9.159258    -30.015778    -39.329937    68.400795    2.087350    -6.813921    1.600623    -13.478410    33.949043    -16.496138    16.064709    -20.648115    46.995632    0.000000    0.000000    0.000000    -16.995928    -24.333549    -3.640432    6.007574    15.743986    -13.441854    2.661941    -1.305487    -21.698217    0.000000    0.000000    0.000000    
29.909983    156.632278    -102.121613    1.179846    -0.685726    21.404264    0.263692    -0.340250    -2.731067    -11.326046    -1.055045    -1.015538    7.195515    12.359300    -8.244502    12.463753    -8.679646    -6.151935    12.314459    -5.133898    -14.195243    -23.983173    -33.977928    -33.753750    -14.471803    -41.026089    -86.853271    -39.614613    -38.879791    -43.635441    -19.030544    0.783923    -9.642753    20.276491    18.598690    11.382817    19.704876    -19.678480    9.165806    -30.024273    -39.285042    68.375282    2.105194    -6.704434    1.546123    -13.428267    33.824547    -16.526905    16.004457    -20.614952    46.917274    0.000000    0.000000    0.000000    -16.895056    -24.339338    -2.869460    6.041340    15.839812    -13.036065    2.739658    -1.477201    -21.537018    0.000000    0.000000    0.000000    
